<mxfile host="65bd71144e">
    <diagram id="YHQc52kZNR6GKzoLSjNz" name="Page-1">
        <mxGraphModel dx="1437" dy="1019" grid="1" gridSize="10" guides="1" tooltips="1" connect="1" arrows="1" fold="1" page="1" pageScale="1" pageWidth="850" pageHeight="1100" math="0" shadow="0">
            <root>
                <mxCell id="0"/>
                <mxCell id="1" parent="0"/>
                <mxCell id="16" style="edgeStyle=none;html=1;entryX=0;entryY=0.5;entryDx=0;entryDy=0;entryPerimeter=0;shadow=0;" parent="1" source="2" target="4" edge="1">
                    <mxGeometry relative="1" as="geometry"/>
                </mxCell>
                <mxCell id="2" value="" style="points=[[0,0,0],[0.25,0,0],[0.5,0,0],[0.75,0,0],[1,0,0],[0,1,0],[0.25,1,0],[0.5,1,0],[0.75,1,0],[1,1,0],[0,0.25,0],[0,0.5,0],[0,0.75,0],[1,0.25,0],[1,0.5,0],[1,0.75,0]];outlineConnect=0;fontColor=#232F3E;gradientColor=#FF5252;gradientDirection=north;fillColor=#C7131F;strokeColor=#ffffff;dashed=0;verticalLabelPosition=bottom;verticalAlign=top;align=center;html=1;fontSize=12;fontStyle=0;aspect=fixed;shape=mxgraph.aws4.resourceIcon;resIcon=mxgraph.aws4.business_application;shadow=0;" parent="1" vertex="1">
                    <mxGeometry x="40" y="750" width="78" height="78" as="geometry"/>
                </mxCell>
                <mxCell id="3" value="&lt;font color=&quot;#ff9933&quot;&gt;AWS Cloud&lt;/font&gt;" style="points=[[0,0],[0.25,0],[0.5,0],[0.75,0],[1,0],[1,0.25],[1,0.5],[1,0.75],[1,1],[0.75,1],[0.5,1],[0.25,1],[0,1],[0,0.75],[0,0.5],[0,0.25]];outlineConnect=0;gradientColor=none;html=1;whiteSpace=wrap;fontSize=12;fontStyle=0;container=1;pointerEvents=0;collapsible=0;recursiveResize=0;shape=mxgraph.aws4.group;grIcon=mxgraph.aws4.group_aws_cloud;strokeColor=#FF9933;fillColor=none;verticalAlign=top;align=left;spacingLeft=30;fontColor=#232F3E;dashed=0;shadow=0;" parent="1" vertex="1">
                    <mxGeometry x="150" y="150" width="1230" height="880" as="geometry"/>
                </mxCell>
                <mxCell id="13" style="edgeStyle=none;html=1;shadow=0;" parent="3" source="4" target="5" edge="1">
                    <mxGeometry relative="1" as="geometry"/>
                </mxCell>
                <mxCell id="15" style="edgeStyle=none;html=1;shadow=0;" parent="3" source="4" target="8" edge="1">
                    <mxGeometry relative="1" as="geometry"/>
                </mxCell>
                <mxCell id="4" value="" style="points=[[0,0,0],[0.25,0,0],[0.5,0,0],[0.75,0,0],[1,0,0],[0,1,0],[0.25,1,0],[0.5,1,0],[0.75,1,0],[1,1,0],[0,0.25,0],[0,0.5,0],[0,0.75,0],[1,0.25,0],[1,0.5,0],[1,0.75,0]];outlineConnect=0;fontColor=#232F3E;gradientColor=#FF4F8B;gradientDirection=north;fillColor=#BC1356;strokeColor=#ffffff;dashed=0;verticalLabelPosition=bottom;verticalAlign=top;align=center;html=1;fontSize=12;fontStyle=0;aspect=fixed;shape=mxgraph.aws4.resourceIcon;resIcon=mxgraph.aws4.api_gateway;shadow=0;" parent="3" vertex="1">
                    <mxGeometry x="70" y="600" width="78" height="78" as="geometry"/>
                </mxCell>
                <mxCell id="8" value="" style="points=[[0,0,0],[0.25,0,0],[0.5,0,0],[0.75,0,0],[1,0,0],[0,1,0],[0.25,1,0],[0.5,1,0],[0.75,1,0],[1,1,0],[0,0.25,0],[0,0.5,0],[0,0.75,0],[1,0.25,0],[1,0.5,0],[1,0.75,0]];outlineConnect=0;fontColor=#232F3E;gradientColor=#FF4F8B;gradientDirection=north;fillColor=#BC1356;strokeColor=#ffffff;dashed=0;verticalLabelPosition=bottom;verticalAlign=top;align=center;html=1;fontSize=12;fontStyle=0;aspect=fixed;shape=mxgraph.aws4.resourceIcon;resIcon=mxgraph.aws4.sqs;shadow=0;" parent="3" vertex="1">
                    <mxGeometry x="250" y="692" width="78" height="78" as="geometry"/>
                </mxCell>
                <mxCell id="6" value="" style="points=[[0,0,0],[0.25,0,0],[0.5,0,0],[0.75,0,0],[1,0,0],[0,1,0],[0.25,1,0],[0.5,1,0],[0.75,1,0],[1,1,0],[0,0.25,0],[0,0.5,0],[0,0.75,0],[1,0.25,0],[1,0.5,0],[1,0.75,0]];outlineConnect=0;fontColor=#232F3E;gradientColor=#FF4F8B;gradientDirection=north;fillColor=#BC1356;strokeColor=#ffffff;dashed=0;verticalLabelPosition=bottom;verticalAlign=top;align=center;html=1;fontSize=12;fontStyle=0;aspect=fixed;shape=mxgraph.aws4.resourceIcon;resIcon=mxgraph.aws4.sqs;shadow=0;" parent="3" vertex="1">
                    <mxGeometry x="250" y="577" width="78" height="78" as="geometry"/>
                </mxCell>
                <mxCell id="5" value="v" style="points=[[0,0,0],[0.25,0,0],[0.5,0,0],[0.75,0,0],[1,0,0],[0,1,0],[0.25,1,0],[0.5,1,0],[0.75,1,0],[1,1,0],[0,0.25,0],[0,0.5,0],[0,0.75,0],[1,0.25,0],[1,0.5,0],[1,0.75,0]];outlineConnect=0;fontColor=#232F3E;gradientColor=#FF4F8B;gradientDirection=north;fillColor=#BC1356;strokeColor=#ffffff;dashed=0;verticalLabelPosition=bottom;verticalAlign=top;align=center;html=1;fontSize=12;fontStyle=0;aspect=fixed;shape=mxgraph.aws4.resourceIcon;resIcon=mxgraph.aws4.sqs;shadow=0;" parent="3" vertex="1">
                    <mxGeometry x="245" y="460" width="78" height="78" as="geometry"/>
                </mxCell>
                <mxCell id="20" style="edgeStyle=none;html=1;shadow=0;" parent="3" source="9" target="12" edge="1">
                    <mxGeometry relative="1" as="geometry"/>
                </mxCell>
                <mxCell id="9" value="" style="outlineConnect=0;dashed=0;verticalLabelPosition=bottom;verticalAlign=top;align=center;html=1;shape=mxgraph.aws3.lambda_function;fillColor=#F58534;gradientColor=none;strokeColor=#FF9933;shadow=0;" parent="3" vertex="1">
                    <mxGeometry x="420" y="460" width="69" height="72" as="geometry"/>
                </mxCell>
                <mxCell id="22" style="edgeStyle=none;html=1;shadow=0;" parent="3" source="11" target="12" edge="1">
                    <mxGeometry relative="1" as="geometry"/>
                </mxCell>
                <mxCell id="11" value="" style="outlineConnect=0;dashed=0;verticalLabelPosition=bottom;verticalAlign=top;align=center;html=1;shape=mxgraph.aws3.lambda_function;fillColor=#F58534;gradientColor=none;strokeColor=#FF9933;shadow=0;" parent="3" vertex="1">
                    <mxGeometry x="420" y="698" width="69" height="72" as="geometry"/>
                </mxCell>
                <mxCell id="21" style="edgeStyle=none;html=1;shadow=0;" parent="3" source="10" target="12" edge="1">
                    <mxGeometry relative="1" as="geometry"/>
                </mxCell>
                <mxCell id="10" value="" style="outlineConnect=0;dashed=0;verticalLabelPosition=bottom;verticalAlign=top;align=center;html=1;shape=mxgraph.aws3.lambda_function;fillColor=#F58534;gradientColor=none;strokeColor=#FF9933;shadow=0;" parent="3" vertex="1">
                    <mxGeometry x="420" y="580" width="69" height="72" as="geometry"/>
                </mxCell>
                <mxCell id="14" style="edgeStyle=none;html=1;shadow=0;" parent="3" source="4" edge="1">
                    <mxGeometry relative="1" as="geometry">
                        <mxPoint x="250" y="640" as="targetPoint"/>
                    </mxGeometry>
                </mxCell>
                <mxCell id="64" style="edgeStyle=none;html=1;shadow=0;" parent="3" source="12" target="62" edge="1">
                    <mxGeometry relative="1" as="geometry"/>
                </mxCell>
                <mxCell id="12" value="" style="points=[[0,0,0],[0.25,0,0],[0.5,0,0],[0.75,0,0],[1,0,0],[0,1,0],[0.25,1,0],[0.5,1,0],[0.75,1,0],[1,1,0],[0,0.25,0],[0,0.5,0],[0,0.75,0],[1,0.25,0],[1,0.5,0],[1,0.75,0]];outlineConnect=0;fontColor=#232F3E;gradientColor=#4D72F3;gradientDirection=north;fillColor=#3334B9;strokeColor=#ffffff;dashed=0;verticalLabelPosition=bottom;verticalAlign=top;align=center;html=1;fontSize=12;fontStyle=0;aspect=fixed;shape=mxgraph.aws4.resourceIcon;resIcon=mxgraph.aws4.dynamodb;shadow=0;" parent="3" vertex="1">
                    <mxGeometry x="690" y="590" width="78" height="78" as="geometry"/>
                </mxCell>
                <mxCell id="25" value="POST" style="text;html=1;align=center;verticalAlign=middle;resizable=0;points=[];autosize=1;strokeColor=none;fillColor=none;shadow=0;" parent="3" vertex="1">
                    <mxGeometry x="343" y="750" width="60" height="30" as="geometry"/>
                </mxCell>
                <mxCell id="32" style="edgeStyle=none;html=1;shadow=0;" parent="3" edge="1">
                    <mxGeometry relative="1" as="geometry">
                        <mxPoint x="178" y="139.19587628865975" as="sourcePoint"/>
                        <mxPoint x="250" y="137.71134020618547" as="targetPoint"/>
                    </mxGeometry>
                </mxCell>
                <mxCell id="27" value="" style="points=[[0,0,0],[0.25,0,0],[0.5,0,0],[0.75,0,0],[1,0,0],[0,1,0],[0.25,1,0],[0.5,1,0],[0.75,1,0],[1,1,0],[0,0.25,0],[0,0.5,0],[0,0.75,0],[1,0.25,0],[1,0.5,0],[1,0.75,0]];outlineConnect=0;fontColor=#232F3E;gradientColor=#60A337;gradientDirection=north;fillColor=#277116;strokeColor=#ffffff;dashed=0;verticalLabelPosition=bottom;verticalAlign=top;align=center;html=1;fontSize=12;fontStyle=0;aspect=fixed;shape=mxgraph.aws4.resourceIcon;resIcon=mxgraph.aws4.s3;shadow=0;" parent="3" vertex="1">
                    <mxGeometry x="100" y="115" width="78" height="78" as="geometry"/>
                </mxCell>
                <mxCell id="35" value="" style="edgeStyle=none;html=1;shadow=0;" parent="3" source="28" target="29" edge="1">
                    <mxGeometry relative="1" as="geometry"/>
                </mxCell>
                <mxCell id="28" value="" style="outlineConnect=0;dashed=0;verticalLabelPosition=bottom;verticalAlign=top;align=center;html=1;shape=mxgraph.aws3.lambda_function;fillColor=#F58534;gradientColor=none;strokeColor=#FF9933;shadow=0;" parent="3" vertex="1">
                    <mxGeometry x="250" y="115" width="69" height="72" as="geometry"/>
                </mxCell>
                <mxCell id="36" value="" style="edgeStyle=none;html=1;shadow=0;" parent="3" source="29" target="30" edge="1">
                    <mxGeometry relative="1" as="geometry"/>
                </mxCell>
                <mxCell id="40" style="edgeStyle=none;html=1;shadow=0;" parent="3" edge="1">
                    <mxGeometry relative="1" as="geometry">
                        <mxPoint x="495" y="137.72916666666674" as="sourcePoint"/>
                        <mxPoint x="694.5" y="137.73255813953483" as="targetPoint"/>
                        <Array as="points">
                            <mxPoint x="600" y="137"/>
                        </Array>
                    </mxGeometry>
                </mxCell>
                <mxCell id="29" value="v" style="points=[[0,0,0],[0.25,0,0],[0.5,0,0],[0.75,0,0],[1,0,0],[0,1,0],[0.25,1,0],[0.5,1,0],[0.75,1,0],[1,1,0],[0,0.25,0],[0,0.5,0],[0,0.75,0],[1,0.25,0],[1,0.5,0],[1,0.75,0]];outlineConnect=0;fontColor=#232F3E;gradientColor=#FF4F8B;gradientDirection=north;fillColor=#BC1356;strokeColor=#ffffff;dashed=0;verticalLabelPosition=bottom;verticalAlign=top;align=center;html=1;fontSize=12;fontStyle=0;aspect=fixed;shape=mxgraph.aws4.resourceIcon;resIcon=mxgraph.aws4.sqs;shadow=0;" parent="3" vertex="1">
                    <mxGeometry x="417" y="112" width="78" height="78" as="geometry"/>
                </mxCell>
                <mxCell id="30" value="v" style="points=[[0,0,0],[0.25,0,0],[0.5,0,0],[0.75,0,0],[1,0,0],[0,1,0],[0.25,1,0],[0.5,1,0],[0.75,1,0],[1,1,0],[0,0.25,0],[0,0.5,0],[0,0.75,0],[1,0.25,0],[1,0.5,0],[1,0.75,0]];outlineConnect=0;fontColor=#232F3E;gradientColor=#FF4F8B;gradientDirection=north;fillColor=#BC1356;strokeColor=#ffffff;dashed=0;verticalLabelPosition=bottom;verticalAlign=top;align=center;html=1;fontSize=12;fontStyle=0;aspect=fixed;shape=mxgraph.aws4.resourceIcon;resIcon=mxgraph.aws4.sqs;shadow=0;" parent="3" vertex="1">
                    <mxGeometry x="417" y="250" width="78" height="78" as="geometry"/>
                </mxCell>
                <mxCell id="41" style="edgeStyle=none;html=1;shadow=0;" parent="3" source="31" target="12" edge="1">
                    <mxGeometry relative="1" as="geometry"/>
                </mxCell>
                <mxCell id="31" value="" style="outlineConnect=0;dashed=0;verticalLabelPosition=bottom;verticalAlign=top;align=center;html=1;shape=mxgraph.aws3.lambda_function;fillColor=#F58534;gradientColor=none;strokeColor=#FF9933;shadow=0;" parent="3" vertex="1">
                    <mxGeometry x="694.5" y="115" width="69" height="72" as="geometry"/>
                </mxCell>
                <mxCell id="34" style="edgeStyle=none;html=1;shadow=0;" parent="3" edge="1">
                    <mxGeometry relative="1" as="geometry">
                        <mxPoint x="178" y="163.19587628865975" as="sourcePoint"/>
                        <mxPoint x="250" y="161.71134020618547" as="targetPoint"/>
                    </mxGeometry>
                </mxCell>
                <mxCell id="42" value="S3&lt;br&gt;event&amp;nbsp;&lt;br&gt;trigger" style="text;html=1;align=center;verticalAlign=middle;resizable=0;points=[];autosize=1;strokeColor=none;fillColor=none;shadow=0;" parent="3" vertex="1">
                    <mxGeometry x="178" y="80" width="60" height="60" as="geometry"/>
                </mxCell>
                <mxCell id="43" value="retrieve file&amp;nbsp;&lt;br&gt;content" style="text;html=1;align=center;verticalAlign=middle;resizable=0;points=[];autosize=1;strokeColor=none;fillColor=none;shadow=0;" parent="3" vertex="1">
                    <mxGeometry x="170" y="160" width="90" height="40" as="geometry"/>
                </mxCell>
                <mxCell id="44" value="Push&lt;br&gt;messages&lt;br&gt;to queue" style="text;html=1;align=center;verticalAlign=middle;resizable=0;points=[];autosize=1;strokeColor=none;fillColor=none;shadow=0;" parent="3" vertex="1">
                    <mxGeometry x="323" y="90" width="80" height="60" as="geometry"/>
                </mxCell>
                <mxCell id="46" value="SQS events Invokes" style="text;html=1;align=center;verticalAlign=middle;resizable=0;points=[];autosize=1;strokeColor=none;fillColor=none;shadow=0;" parent="3" vertex="1">
                    <mxGeometry x="520" y="110" width="130" height="30" as="geometry"/>
                </mxCell>
                <mxCell id="47" value="" style="edgeStyle=none;orthogonalLoop=1;jettySize=auto;html=1;endArrow=classic;startArrow=classic;endSize=8;startSize=8;exitX=1;exitY=0.75;exitDx=0;exitDy=0;exitPerimeter=0;shadow=0;" parent="3" source="29" edge="1">
                    <mxGeometry width="100" relative="1" as="geometry">
                        <mxPoint x="535" y="170" as="sourcePoint"/>
                        <mxPoint x="700" y="170" as="targetPoint"/>
                        <Array as="points"/>
                    </mxGeometry>
                </mxCell>
                <mxCell id="48" value="Consumes Messages" style="text;html=1;align=center;verticalAlign=middle;resizable=0;points=[];autosize=1;strokeColor=none;fillColor=none;shadow=0;" parent="3" vertex="1">
                    <mxGeometry x="520" y="170" width="140" height="30" as="geometry"/>
                </mxCell>
                <mxCell id="49" value="Push &quot;PUT&quot;&lt;br&gt;Messages" style="text;html=1;align=center;verticalAlign=middle;resizable=0;points=[];autosize=1;strokeColor=none;fillColor=none;shadow=0;" parent="3" vertex="1">
                    <mxGeometry x="135" y="520" width="90" height="40" as="geometry"/>
                </mxCell>
                <mxCell id="50" value="Push &quot;GET&quot;&lt;br&gt;Messages" style="text;html=1;align=center;verticalAlign=middle;resizable=0;points=[];autosize=1;strokeColor=none;fillColor=none;shadow=0;" parent="3" vertex="1">
                    <mxGeometry x="155" y="600" width="90" height="40" as="geometry"/>
                </mxCell>
                <mxCell id="51" value="&lt;br&gt;&lt;span style=&quot;color: rgb(240, 240, 240); font-family: Helvetica; font-size: 12px; font-style: normal; font-variant-ligatures: normal; font-variant-caps: normal; font-weight: 400; letter-spacing: normal; orphans: 2; text-align: center; text-indent: 0px; text-transform: none; widows: 2; word-spacing: 0px; -webkit-text-stroke-width: 0px; background-color: rgb(42, 37, 47); text-decoration-thickness: initial; text-decoration-style: initial; text-decoration-color: initial; float: none; display: inline !important;&quot;&gt;Push &quot;POST&quot;&lt;/span&gt;&lt;br style=&quot;border-color: rgb(0, 0, 0); color: rgb(240, 240, 240); font-family: Helvetica; font-size: 12px; font-style: normal; font-variant-ligatures: normal; font-variant-caps: normal; font-weight: 400; letter-spacing: normal; orphans: 2; text-align: center; text-indent: 0px; text-transform: none; widows: 2; word-spacing: 0px; -webkit-text-stroke-width: 0px; background-color: rgb(42, 37, 47); text-decoration-thickness: initial; text-decoration-style: initial; text-decoration-color: initial;&quot;&gt;&lt;span style=&quot;color: rgb(240, 240, 240); font-family: Helvetica; font-size: 12px; font-style: normal; font-variant-ligatures: normal; font-variant-caps: normal; font-weight: 400; letter-spacing: normal; orphans: 2; text-align: center; text-indent: 0px; text-transform: none; widows: 2; word-spacing: 0px; -webkit-text-stroke-width: 0px; background-color: rgb(42, 37, 47); text-decoration-thickness: initial; text-decoration-style: initial; text-decoration-color: initial; float: none; display: inline !important;&quot;&gt;Messages&lt;/span&gt;&lt;br&gt;" style="text;html=1;align=center;verticalAlign=middle;resizable=0;points=[];autosize=1;strokeColor=none;fillColor=none;shadow=0;" parent="3" vertex="1">
                    <mxGeometry x="130" y="680" width="100" height="60" as="geometry"/>
                </mxCell>
                <mxCell id="52" value="" style="edgeStyle=none;orthogonalLoop=1;jettySize=auto;html=1;endArrow=classic;startArrow=classic;endSize=8;startSize=8;shadow=0;" parent="3" edge="1">
                    <mxGeometry width="100" relative="1" as="geometry">
                        <mxPoint x="328" y="740" as="sourcePoint"/>
                        <mxPoint x="428" y="740" as="targetPoint"/>
                        <Array as="points"/>
                    </mxGeometry>
                </mxCell>
                <mxCell id="24" value="GET" style="text;html=1;align=center;verticalAlign=middle;resizable=0;points=[];autosize=1;strokeColor=none;fillColor=none;shadow=0;" parent="3" vertex="1">
                    <mxGeometry x="348" y="630" width="50" height="30" as="geometry"/>
                </mxCell>
                <mxCell id="53" value="" style="edgeStyle=none;orthogonalLoop=1;jettySize=auto;html=1;endArrow=classic;startArrow=classic;endSize=8;startSize=8;shadow=0;" parent="3" edge="1">
                    <mxGeometry width="100" relative="1" as="geometry">
                        <mxPoint x="328" y="619.5" as="sourcePoint"/>
                        <mxPoint x="428" y="619.5" as="targetPoint"/>
                        <Array as="points"/>
                    </mxGeometry>
                </mxCell>
                <mxCell id="23" value="PUT" style="text;html=1;align=center;verticalAlign=middle;resizable=0;points=[];autosize=1;strokeColor=none;fillColor=none;shadow=0;" parent="3" vertex="1">
                    <mxGeometry x="348" y="520" width="50" height="30" as="geometry"/>
                </mxCell>
                <mxCell id="54" value="" style="edgeStyle=none;orthogonalLoop=1;jettySize=auto;html=1;endArrow=classic;startArrow=classic;endSize=8;startSize=8;shadow=0;" parent="3" edge="1">
                    <mxGeometry width="100" relative="1" as="geometry">
                        <mxPoint x="323" y="498.5" as="sourcePoint"/>
                        <mxPoint x="423" y="498.5" as="targetPoint"/>
                        <Array as="points"/>
                    </mxGeometry>
                </mxCell>
                <mxCell id="56" value="POST" style="text;html=1;align=center;verticalAlign=middle;resizable=0;points=[];autosize=1;strokeColor=none;fillColor=none;shadow=0;" parent="3" vertex="1">
                    <mxGeometry x="555" y="716" width="60" height="30" as="geometry"/>
                </mxCell>
                <mxCell id="58" value="PUT" style="text;html=1;align=center;verticalAlign=middle;resizable=0;points=[];autosize=1;strokeColor=none;fillColor=none;shadow=0;" parent="3" vertex="1">
                    <mxGeometry x="515" y="547" width="50" height="30" as="geometry"/>
                </mxCell>
                <mxCell id="59" value="PUT&lt;br&gt;POST&lt;br&gt;GET&lt;br&gt;PATCH" style="text;html=1;align=center;verticalAlign=middle;resizable=0;points=[];autosize=1;strokeColor=none;fillColor=none;shadow=0;" parent="3" vertex="1">
                    <mxGeometry x="740" y="330" width="60" height="70" as="geometry"/>
                </mxCell>
                <mxCell id="63" value="" style="points=[[0,0,0],[0.25,0,0],[0.5,0,0],[0.75,0,0],[1,0,0],[0,1,0],[0.25,1,0],[0.5,1,0],[0.75,1,0],[1,1,0],[0,0.25,0],[0,0.5,0],[0,0.75,0],[1,0.25,0],[1,0.5,0],[1,0.75,0]];outlineConnect=0;fontColor=#232F3E;gradientColor=#FF5252;gradientDirection=north;fillColor=#C7131F;strokeColor=#ffffff;dashed=0;verticalLabelPosition=bottom;verticalAlign=top;align=center;html=1;fontSize=12;fontStyle=0;aspect=fixed;shape=mxgraph.aws4.resourceIcon;resIcon=mxgraph.aws4.simple_email_service;shadow=0;" parent="3" vertex="1">
                    <mxGeometry x="1090" y="593" width="78" height="78" as="geometry"/>
                </mxCell>
                <mxCell id="65" style="edgeStyle=none;html=1;shadow=0;" parent="3" source="62" target="63" edge="1">
                    <mxGeometry relative="1" as="geometry"/>
                </mxCell>
                <mxCell id="62" value="" style="outlineConnect=0;dashed=0;verticalLabelPosition=bottom;verticalAlign=top;align=center;html=1;shape=mxgraph.aws3.lambda_function;fillColor=#F58534;gradientColor=none;strokeColor=#FF9933;shadow=0;" parent="3" vertex="1">
                    <mxGeometry x="890" y="596" width="69" height="72" as="geometry"/>
                </mxCell>
                <mxCell id="66" value="DynamoDB&lt;br&gt;triggers" style="text;html=1;align=center;verticalAlign=middle;resizable=0;points=[];autosize=1;strokeColor=none;fillColor=none;shadow=0;" parent="3" vertex="1">
                    <mxGeometry x="790" y="580" width="80" height="40" as="geometry"/>
                </mxCell>
                <mxCell id="68" value="DynamoDB" style="text;html=1;align=center;verticalAlign=middle;resizable=0;points=[];autosize=1;strokeColor=none;fillColor=none;shadow=0;" parent="3" vertex="1">
                    <mxGeometry x="690" y="671" width="80" height="30" as="geometry"/>
                </mxCell>
                <mxCell id="69" value="Lambda" style="text;html=1;align=center;verticalAlign=middle;resizable=0;points=[];autosize=1;strokeColor=none;fillColor=none;shadow=0;" parent="3" vertex="1">
                    <mxGeometry x="890" y="668" width="70" height="30" as="geometry"/>
                </mxCell>
                <mxCell id="71" value="Lambda" style="text;html=1;align=center;verticalAlign=middle;resizable=0;points=[];autosize=1;strokeColor=none;fillColor=none;shadow=0;" parent="3" vertex="1">
                    <mxGeometry x="425" y="780" width="70" height="30" as="geometry"/>
                </mxCell>
                <mxCell id="70" value="Lambda" style="text;html=1;align=center;verticalAlign=middle;resizable=0;points=[];autosize=1;strokeColor=none;fillColor=none;shadow=0;" parent="3" vertex="1">
                    <mxGeometry x="425" y="655" width="70" height="30" as="geometry"/>
                </mxCell>
                <mxCell id="72" value="Lambda" style="text;html=1;align=center;verticalAlign=middle;resizable=0;points=[];autosize=1;strokeColor=none;fillColor=none;shadow=0;" parent="3" vertex="1">
                    <mxGeometry x="425" y="530" width="70" height="30" as="geometry"/>
                </mxCell>
                <mxCell id="74" value="Lambda" style="text;html=1;align=center;verticalAlign=middle;resizable=0;points=[];autosize=1;strokeColor=none;fillColor=none;shadow=0;" parent="3" vertex="1">
                    <mxGeometry x="695" y="70" width="70" height="30" as="geometry"/>
                </mxCell>
                <mxCell id="73" value="Lambda" style="text;html=1;align=center;verticalAlign=middle;resizable=0;points=[];autosize=1;strokeColor=none;fillColor=none;shadow=0;" parent="3" vertex="1">
                    <mxGeometry x="250" y="187" width="70" height="30" as="geometry"/>
                </mxCell>
                <mxCell id="75" value="API Gateway" style="text;html=1;align=center;verticalAlign=middle;resizable=0;points=[];autosize=1;strokeColor=none;fillColor=none;shadow=0;" parent="3" vertex="1">
                    <mxGeometry x="58" y="685" width="90" height="30" as="geometry"/>
                </mxCell>
                <mxCell id="76" value="SQS" style="text;html=1;align=center;verticalAlign=middle;resizable=0;points=[];autosize=1;strokeColor=none;fillColor=none;shadow=0;" parent="3" vertex="1">
                    <mxGeometry x="435" y="82" width="50" height="30" as="geometry"/>
                </mxCell>
                <mxCell id="80" value="SQS" style="text;html=1;align=center;verticalAlign=middle;resizable=0;points=[];autosize=1;strokeColor=none;fillColor=none;shadow=0;" parent="3" vertex="1">
                    <mxGeometry x="269" y="780" width="50" height="30" as="geometry"/>
                </mxCell>
                <mxCell id="79" value="SQS" style="text;html=1;align=center;verticalAlign=middle;resizable=0;points=[];autosize=1;strokeColor=none;fillColor=none;shadow=0;" parent="3" vertex="1">
                    <mxGeometry x="259" y="648" width="50" height="30" as="geometry"/>
                </mxCell>
                <mxCell id="78" value="SQS" style="text;html=1;align=center;verticalAlign=middle;resizable=0;points=[];autosize=1;strokeColor=none;fillColor=none;shadow=0;" parent="3" vertex="1">
                    <mxGeometry x="260" y="532" width="50" height="30" as="geometry"/>
                </mxCell>
                <mxCell id="77" value="SQS DLQ" style="text;html=1;align=center;verticalAlign=middle;resizable=0;points=[];autosize=1;strokeColor=none;fillColor=none;shadow=0;" parent="3" vertex="1">
                    <mxGeometry x="416" y="328" width="80" height="30" as="geometry"/>
                </mxCell>
                <mxCell id="81" value="SES" style="text;html=1;align=center;verticalAlign=middle;resizable=0;points=[];autosize=1;strokeColor=none;fillColor=none;shadow=0;" parent="3" vertex="1">
                    <mxGeometry x="1100" y="678" width="50" height="30" as="geometry"/>
                </mxCell>
                <mxCell id="82" value="S3" style="text;html=1;align=center;verticalAlign=middle;resizable=0;points=[];autosize=1;strokeColor=none;fillColor=none;shadow=0;" parent="3" vertex="1">
                    <mxGeometry x="115" y="193" width="40" height="30" as="geometry"/>
                </mxCell>
                <mxCell id="85" value="" style="outlineConnect=0;dashed=0;verticalLabelPosition=bottom;verticalAlign=top;align=center;html=1;shape=mxgraph.aws3.cloudwatch;fillColor=#759C3E;gradientColor=none;shadow=0;strokeColor=#FF9933;fontColor=#FF9933;" parent="3" vertex="1">
                    <mxGeometry x="1130" y="7" width="82.5" height="93" as="geometry"/>
                </mxCell>
                <mxCell id="86" value="Clodwatch" style="text;html=1;align=center;verticalAlign=middle;resizable=0;points=[];autosize=1;strokeColor=none;fillColor=none;fontColor=#FF9933;shadow=0;" parent="3" vertex="1">
                    <mxGeometry x="1131.25" y="95" width="80" height="30" as="geometry"/>
                </mxCell>
                <mxCell id="61" style="edgeStyle=none;html=1;shadow=0;" parent="1" source="26" target="27" edge="1">
                    <mxGeometry relative="1" as="geometry"/>
                </mxCell>
                <mxCell id="26" value="" style="pointerEvents=1;shadow=0;dashed=0;html=1;strokeColor=none;fillColor=#00331A;labelPosition=center;verticalLabelPosition=bottom;verticalAlign=top;outlineConnect=0;align=center;shape=mxgraph.office.users.csv_file;" parent="1" vertex="1">
                    <mxGeometry x="38" y="264" width="80" height="80" as="geometry"/>
                </mxCell>
                <mxCell id="57" value="GET" style="text;html=1;align=center;verticalAlign=middle;resizable=0;points=[];autosize=1;strokeColor=none;fillColor=none;shadow=0;" parent="1" vertex="1">
                    <mxGeometry x="665" y="765" width="50" height="30" as="geometry"/>
                </mxCell>
                <mxCell id="67" value="send Email" style="text;html=1;align=center;verticalAlign=middle;resizable=0;points=[];autosize=1;strokeColor=none;fillColor=none;shadow=0;" parent="1" vertex="1">
                    <mxGeometry x="1120" y="745" width="80" height="30" as="geometry"/>
                </mxCell>
                <mxCell id="83" value="CSV file" style="text;html=1;align=center;verticalAlign=middle;resizable=0;points=[];autosize=1;strokeColor=none;fillColor=none;shadow=0;" parent="1" vertex="1">
                    <mxGeometry x="35" y="345" width="70" height="30" as="geometry"/>
                </mxCell>
                <mxCell id="84" value="Application" style="text;html=1;align=center;verticalAlign=middle;resizable=0;points=[];autosize=1;strokeColor=none;fillColor=none;shadow=0;" parent="1" vertex="1">
                    <mxGeometry x="35" y="830" width="80" height="30" as="geometry"/>
                </mxCell>
            </root>
        </mxGraphModel>
    </diagram>
</mxfile>